<?xml version="1.0" standalone="no"?>
<!DOCTYPE svg PUBLIC "-//W3C//DTD SVG 20010904//EN"
 "http://www.w3.org/TR/2001/REC-SVG-20010904/DTD/svg10.dtd">
<svg version="1.0" xmlns="http://www.w3.org/2000/svg"
 width="871.000000pt" height="755.000000pt" viewBox="0 0 871.000000 755.000000"
 preserveAspectRatio="xMidYMid meet">

<g transform="translate(0.000000,755.000000) scale(0.100000,-0.100000)"
fill="#000000" stroke="none">
<path d="M0 3775 l0 -3775 4355 0 4355 0 0 3775 0 3775 -4355 0 -4355 0 0
-3775z m2900 2785 c158 -39 290 -99 454 -209 l101 -68 100 13 c362 47 920 44
1315 -7 189 -24 272 -39 505 -90 1079 -239 1589 -466 2006 -895 553 -570 778
-1406 637 -2367 -20 -142 -21 -150 -4 -217 75 -311 53 -561 -69 -805 -30 -60
-65 -121 -76 -135 l-20 -25 5 525 5 525 30 145 c73 344 65 672 -24 935 -62
186 -182 389 -293 499 l-60 58 -6 -93 c-40 -552 -107 -926 -251 -1399 -63
-208 -57 -168 -170 -1064 -88 -693 -84 -664 -101 -681 -8 -7 -46 -21 -86 -31
-148 -36 -681 -28 -734 10 -14 11 -8 29 65 171 l81 159 -17 435 -16 436 -43
78 c-90 162 -276 369 -435 484 -223 160 -411 239 -744 311 l-80 18 3 64 c1 36
9 158 17 272 8 114 15 249 14 300 0 110 -3 106 -59 -92 -82 -286 -179 -475
-347 -674 -52 -62 -98 -106 -241 -226 l-42 -35 -10 -260 c-6 -143 -17 -483
-26 -755 -19 -609 -25 -705 -46 -726 -25 -26 -132 -44 -295 -51 -166 -7 -363
10 -363 32 0 6 14 71 30 144 l31 133 -61 261 c-34 144 -131 539 -215 877 -138
552 -269 1093 -277 1144 -2 16 16 26 115 62 211 77 374 179 522 328 258 259
365 519 365 886 0 137 -12 262 -36 355 -24 99 -65 227 -70 222 -3 -2 5 -47 16
-98 45 -198 60 -416 39 -565 -33 -238 -123 -423 -283 -577 -180 -176 -414
-291 -617 -304 -198 -13 -289 71 -289 267 l0 67 -52 16 c-88 27 -137 35 -263
42 -143 9 -199 -3 -341 -71 -73 -34 -102 -55 -151 -108 -115 -122 -153 -239
-153 -471 0 -169 16 -249 69 -360 47 -96 104 -155 151 -155 42 0 98 38 155
105 70 82 76 83 140 40 48 -33 61 -37 136 -42 93 -6 119 -15 119 -41 0 -25
-73 -164 -126 -240 -94 -134 -171 -209 -274 -263 -36 -19 -60 -24 -120 -23
-126 0 -169 21 -281 133 -75 76 -107 118 -154 201 -68 121 -162 325 -226 488
-38 98 -47 112 -64 109 -11 -3 -75 -21 -143 -40 -172 -50 -255 -60 -445 -55
-183 6 -290 26 -446 84 -168 63 -168 63 24 62 178 -1 255 11 395 61 193 68
360 185 480 335 l45 56 1 248 c0 256 11 369 55 567 97 442 318 906 568 1191
198 227 413 349 686 388 52 7 187 -5 265 -24z m4555 -3392 c-3 -46 -13 -139
-21 -208 -19 -171 -17 -389 6 -745 11 -165 23 -386 26 -490 l7 -190 -144 -54
c-180 -66 -169 -63 -175 -47 -3 7 13 200 35 427 23 228 53 533 67 679 l25 265
71 185 c96 252 99 260 105 260 3 0 2 -37 -2 -82z m-2503 -9 c81 -16 108 -29
125 -62 45 -88 403 -1144 433 -1279 12 -52 11 -58 -9 -86 -78 -110 -373 -306
-552 -367 -40 -14 -74 -23 -76 -21 -2 2 3 95 13 207 l16 204 -204 460 c-237
533 -252 570 -245 589 3 8 61 59 129 114 68 55 148 126 178 157 56 58 105 95
127 95 7 0 36 -5 65 -11z"/>
</g>
</svg>
