<?xml version="1.0" standalone="no"?>
<!DOCTYPE svg PUBLIC "-//W3C//DTD SVG 20010904//EN"
 "http://www.w3.org/TR/2001/REC-SVG-20010904/DTD/svg10.dtd">
<svg version="1.0" xmlns="http://www.w3.org/2000/svg"
 width="653.000000pt" height="566.000000pt" viewBox="0 0 653.000000 566.000000"
 preserveAspectRatio="xMidYMid meet">

<g transform="translate(0.000000,566.000000) scale(0.100000,-0.100000)"
fill="#000000" stroke="none">
<path d="M1915 4925 c-335 -60 -628 -398 -814 -940 -81 -234 -119 -486 -107
-715 l6 -125 -51 -62 c-161 -196 -437 -308 -695 -283 -44 5 -81 6 -83 5 -4 -5
55 -30 129 -56 226 -80 451 -84 667 -14 58 19 107 34 107 33 1 -2 26 -64 55
-138 55 -139 140 -311 190 -384 42 -60 127 -142 169 -162 20 -10 65 -20 98
-22 52 -4 70 0 115 23 95 46 202 172 274 319 37 75 28 86 -68 86 -66 0 -73 2
-103 31 -39 38 -58 34 -99 -24 -36 -49 -89 -87 -121 -87 -52 0 -113 83 -150
205 -28 92 -26 298 4 385 45 131 142 223 280 266 74 24 94 26 190 21 63 -3
131 -12 166 -24 l60 -19 3 -66 c5 -132 61 -188 190 -188 162 0 361 95 507 244
192 195 250 489 166 842 -10 43 -17 80 -15 82 7 7 55 -157 70 -237 21 -116 19
-304 -4 -412 -38 -171 -108 -303 -231 -432 -121 -128 -254 -213 -425 -273 -44
-15 -82 -29 -83 -30 -2 -1 37 -166 87 -366 200 -802 331 -1340 331 -1356 0 -9
-11 -62 -25 -116 -14 -55 -23 -101 -22 -103 2 -1 49 -8 105 -15 105 -12 279
-2 364 22 34 10 37 14 42 53 5 37 15 326 31 882 3 99 8 228 11 287 l7 107 75
58 c191 147 338 388 402 663 13 52 27 100 33 105 11 11 4 -178 -15 -398 -6
-75 -9 -139 -6 -142 3 -3 44 -12 92 -21 185 -32 377 -114 521 -222 137 -101
269 -249 334 -372 l29 -55 12 -326 13 -327 -62 -116 c-34 -64 -59 -120 -56
-125 22 -36 389 -48 535 -17 47 9 88 20 92 24 4 4 11 43 17 87 82 649 132
1046 137 1070 3 17 21 77 40 135 100 310 161 627 185 968 l13 172 34 -32 c95
-91 183 -237 230 -383 43 -130 56 -222 56 -375 0 -141 -11 -231 -44 -364 -18
-71 -20 -115 -20 -470 l0 -391 21 30 c130 191 167 436 102 681 -15 55 -15 68
0 166 91 579 -11 1139 -278 1538 -239 357 -548 578 -1031 739 -307 102 -758
208 -1044 246 -293 39 -734 41 -993 5 l-76 -11 -78 54 c-132 92 -257 145 -393
167 -81 12 -116 12 -205 -5z"/>
<path d="M5527 2277 l-66 -172 -26 -265 c-14 -146 -34 -357 -45 -470 -11 -113
-22 -229 -26 -258 -7 -63 -21 -63 141 -1 l100 37 -2 84 c0 46 -11 236 -23 423
-23 348 -22 403 5 649 8 77 13 141 12 142 -2 2 -33 -74 -70 -169z"/>
<path d="M3571 2304 c-40 -41 -110 -102 -155 -136 -44 -33 -82 -64 -84 -69 -2
-4 75 -184 172 -399 l175 -391 -9 -97 c-5 -53 -12 -122 -14 -154 l-6 -56 38
10 c155 42 452 248 452 315 0 42 -181 594 -305 928 -32 87 -34 90 -72 101 -21
6 -57 14 -78 17 -39 5 -42 3 -114 -69z"/>
</g>
</svg>
