<?xml version="1.0" standalone="no"?>
<!DOCTYPE svg PUBLIC "-//W3C//DTD SVG 20010904//EN"
 "http://www.w3.org/TR/2001/REC-SVG-20010904/DTD/svg10.dtd">
<svg version="1.0" xmlns="http://www.w3.org/2000/svg"
 width="871.000000pt" height="755.000000pt" viewBox="0 0 871.000000 755.000000"
 preserveAspectRatio="xMidYMid meet">

<g transform="translate(0.000000,755.000000) scale(0.100000,-0.100000)" stroke="#ffffff">
<path fill="#ffffff" d="M 0 3775 z m 2900 2785 c 158 -39 290 -99 454 -209 l 101 -68 l 100 13 c 362 47 920 44 1315 -7 c 189 -24 272 -39 505 -90 c 1079 -239 1589 -466 2006 -895 c 553 -570 778 -1406 637 -2367 c -20 -142 -21 -150 -4 -217 c 75 -311 53 -561 -69 -805 c -30 -60 -65 -121 -76 -135 l -20 -25 l 5 525 l 5 525 l 30 145 c 73 344 65 672 -24 935 c -62 186 -182 389 -293 499 l -60 58 l -6 -93 c -40 -552 -107 -926 -251 -1399 c -63 -208 -57 -168 -170 -1064 c -88 -693 -84 -664 -101 -681 c -8 -7 -46 -21 -86 -31 c -148 -36 -681 -28 -734 10 c -14 11 -8 29 65 171 l 81 159 l -17 435 l -16 436 l -43 78 c -90 162 -276 369 -435 484 c -223 160 -411 239 -744 311 l -80 18 l 3 64 c 1 36 9 158 17 272 c 8 114 15 249 14 300 c 0 110 -3 106 -59 -92 c -82 -286 -179 -475 -347 -674 c -52 -62 -98 -106 -241 -226 l -42 -35 l -10 -260 c -6 -143 -17 -483 -26 -755 c -19 -609 -25 -705 -46 -726 c -25 -26 -132 -44 -295 -51 c -166 -7 -363 10 -363 32 c 0 6 14 71 30 144 l 31 133 l -61 261 c -34 144 -131 539 -215 877 c -138 552 -269 1093 -277 1144 c -2 16 16 26 115 62 c 211 77 374 179 522 328 c 258 259 365 519 365 886 c 0 137 -12 262 -36 355 c -24 99 -65 227 -70 222 c -3 -2 5 -47 16 -98 c 45 -198 60 -416 39 -565 c -33 -238 -123 -423 -283 -577 c -180 -176 -414 -291 -617 -304 c -198 -13 -289 71 -289 267 l 0 67 l -52 16 c -88 27 -137 35 -263 42 c -143 9 -199 -3 -341 -71 c -73 -34 -102 -55 -151 -108 c -115 -122 -153 -239 -153 -471 c 0 -169 16 -249 69 -360 c 47 -96 104 -155 151 -155 c 42 0 98 38 155 105 c 70 82 76 83 140 40 c 48 -33 61 -37 136 -42 c 93 -6 119 -15 119 -41 c 0 -25 -73 -164 -126 -240 c -94 -134 -171 -209 -274 -263 c -36 -19 -60 -24 -120 -23 c -126 0 -169 21 -281 133 c -75 76 -107 118 -154 201 c -68 121 -162 325 -226 488 c -38 98 -47 112 -64 109 c -11 -3 -75 -21 -143 -40 c -172 -50 -255 -60 -445 -55 c -183 6 -290 26 -446 84 c -168 63 -168 63 24 62 c 178 -1 255 11 395 61 c 193 68 360 185 480 335 l 45 56 l 1 248 c 0 256 11 369 55 567 c 97 442 318 906 568 1191 c 198 227 413 349 686 388 c 52 7 187 -5 265 -24 z m 4555 -3392 c -3 -46 -13 -139 -21 -208 c -19 -171 -17 -389 6 -745 c 11 -165 23 -386 26 -490 l 7 -190 l -144 -54 c -180 -66 -169 -63 -175 -47 c -3 7 13 200 35 427 c 23 228 53 533 67 679 l 25 265 l 71 185 c 96 252 99 260 105 260 c 3 0 2 -37 -2 -82 z m -2503 -9 c 81 -16 108 -29 125 -62 c 45 -88 403 -1144 433 -1279 c 12 -52 11 -58 -9 -86 c -78 -110 -373 -306 -552 -367 c -40 -14 -74 -23 -76 -21 c -2 2 3 95 13 207 l 16 204 l -204 460 c -237 533 -252 570 -245 589 c 3 8 61 59 129 114 c 68 55 148 126 178 157 c 56 58 105 95 127 95 c 7 0 36 -5 65 -11 z"/>
</g>
</svg>
